<mxfile host="app.diagrams.net" modified="2023-06-01T02:29:11.273Z" agent="Mozilla/5.0 (Windows NT 10.0; Win64; x64; rv:109.0) Gecko/20100101 Firefox/114.0" version="21.3.5" etag="E-VV170ykv1LR6mcIEqH" type="github">
  <diagram name="第 1 页" id="GASubhcd5QbbGzF7XUzs">
    <mxGraphModel>
      <root>
        <mxCell id="0" />
        <mxCell id="1" parent="0" />
      </root>
    </mxGraphModel>
  </diagram>
</mxfile>
